<?xml version="1.0"?><svg xmlns="http://www.w3.org/2000/svg" xmlns:xlink="http://www.w3.org/1999/xlink" width="1024" height="1024" viewBox="0 0 1024 1024"><path fill="#232122" transform="scale(2 2)" d="M166.927 299.648C143.068 271.271 146.701 258.064 158.325 223.508C164.498 205.154 168.631 183.948 172.68 164.784C180.001 130.126 183.978 81.0308 221.608 65.8456C224.533 63.9695 227.391 61.7111 230.407 60.0012C261.631 42.2975 298.631 58.797 317.842 86.1492C333.727 108.765 341.38 136.81 342.228 164.172C342.429 170.677 341.583 177.324 341.895 183.847C343.109 200.622 347.062 217.726 351.577 233.884C358.895 260.076 367.559 279.714 341.411 298.744C339.004 299.732 328.219 305.15 327.811 305.777L327.405 305.601C317.972 309.575 308.804 311.88 298.549 312.206C297.15 318.069 295.881 323.247 294.062 328.982C291.317 330.297 288.654 332.984 285.873 334.538C275.18 340.513 269.794 340.047 259.013 341.652C257.463 341.74 255.523 341.67 253.942 341.652C253.489 341.494 250.466 341.274 249.848 341.227C232.281 339.867 229.925 334.49 217.74 327.155C216.39 323.237 215.214 318.562 214.188 314.505C205.247 314.821 189.007 314.007 181.511 308.527C176.363 307.08 170.79 303.318 166.927 299.648Z"/><path fill="#FCBF92" transform="scale(2 2)" d="M241.963 101.743C256.423 108.565 271.291 106.959 285.941 114.295C315.797 127.742 311.676 177.662 309.539 204.235C309.12 209.45 309.591 216.137 307.382 220.712C300.349 233.482 297.087 236.981 286.708 246.759C287.518 251.085 288.079 256.282 288.664 260.699C286.484 261.338 280.81 264.594 278.021 265.721C262.969 271.934 246.169 271.071 231.447 264.342C227.709 262.633 223.694 259.594 220.026 258.226C220.467 254.209 220.919 249.298 221.733 245.377C221.012 244.102 216.17 239.198 214.757 237.3C208.454 228.837 204.828 221.067 201.37 211.244C207.485 195.583 212.158 184.157 216.125 167.223C220.748 147.484 219.208 110.197 241.963 101.743Z"/><path fill="#F28D62" transform="scale(2 2)" d="M221.733 245.377C243.294 266.887 264.518 264.014 286.708 246.759C287.518 251.085 288.079 256.282 288.664 260.699C286.484 261.338 280.81 264.594 278.021 265.721C262.969 271.934 246.169 271.071 231.447 264.342C227.709 262.633 223.694 259.594 220.026 258.226C220.467 254.209 220.919 249.298 221.733 245.377Z"/><path fill="#FCBF92" transform="scale(2 2)" d="M220.026 258.226C223.694 259.594 227.709 262.633 231.447 264.342C246.169 271.071 262.969 271.934 278.021 265.721C280.81 264.594 286.484 261.338 288.664 260.699C289.693 267.008 290.946 276.034 292.349 282.069C290.758 290.876 275.539 302.177 267.552 305.251C277.898 308.66 287.346 312.465 298.549 312.206C297.15 318.069 295.881 323.247 294.062 328.982C291.317 330.297 288.654 332.984 285.873 334.538C275.18 340.513 269.794 340.047 259.013 341.652C257.463 341.74 255.523 341.67 253.942 341.652C253.489 341.494 250.466 341.274 249.848 341.227C232.281 339.867 229.925 334.49 217.74 327.155C216.39 323.237 215.214 318.562 214.188 314.505C222.671 312.374 232.004 310.485 239.408 305.251C231.502 307.021 224.553 306.585 216.969 303.501C227.606 303.888 237.452 303.75 246.6 297.55L246.243 297.475C235.103 295.12 222.68 288.214 216.393 278.565C216.841 272.824 219.12 264.544 220.026 258.226Z"/><path fill="#0A0A09" transform="scale(2 2)" d="M307.382 220.712C311.449 224.163 298.699 279.449 292.349 282.069C290.946 276.034 289.693 267.008 288.664 260.699C288.079 256.282 287.518 251.085 286.708 246.759C297.087 236.981 300.349 233.482 307.382 220.712Z"/><path fill="#484849" transform="scale(2 2)" d="M166.927 258.226C167.761 259.261 171.575 271.767 173.116 274.986C185.588 301.044 214.611 305.304 216.393 308.527C186.426 309.73 165.281 287.644 166.927 258.226Z"/><path fill="#042428" transform="scale(2 2)" d="M166.927 299.648C170.79 303.318 176.363 307.08 181.511 308.527C189.007 314.007 205.247 314.821 214.188 314.505C215.214 318.562 216.39 323.237 217.74 327.155C229.925 334.49 232.281 339.867 249.848 341.227C250.466 341.274 253.489 341.494 253.942 341.652C255.523 341.67 257.463 341.74 259.013 341.652C259.292 345.28 259.027 349.64 259.018 353.386L259.013 454.799C257.476 455.036 253.955 454.864 252.369 454.799C251.037 454.991 250.233 454.885 248.902 454.799L241.963 454.799L76.7548 454.799C77.2111 452.529 77.5887 448.411 77.9208 445.928L80.5733 425.972C83.9573 400.451 87.3679 372.419 93.0587 347.663C94.4806 341.478 100.225 329.543 105.815 326.324C125.244 315.136 148.659 309.879 166.927 299.648Z"/><path fill="#484849" transform="scale(2 2)" d="M181.511 308.527C189.007 314.007 205.247 314.821 214.188 314.505C215.214 318.562 216.39 323.237 217.74 327.155C229.925 334.49 232.281 339.867 249.848 341.227C250.466 341.274 253.489 341.494 253.942 341.652C255.523 341.67 257.463 341.74 259.013 341.652C259.292 345.28 259.027 349.64 259.018 353.386L259.013 454.799C257.476 455.036 253.955 454.864 252.369 454.799C251.037 454.991 250.233 454.885 248.902 454.799L241.963 454.799C241.192 453.006 238.017 448.745 236.789 447.004L186.589 375.165C184.391 372.019 181.975 368.78 179.99 365.53C188.08 360.562 197.15 355.647 205.398 350.855C194.964 347.491 183.298 345.032 172.548 341.652C175.944 333.028 179.188 317.917 181.511 308.527Z"/><path fill="#85AFD0" transform="scale(2 2)" d="M217.74 327.155C229.925 334.49 232.281 339.867 249.848 341.227C250.466 341.274 253.489 341.494 253.942 341.652C255.523 341.67 257.463 341.74 259.013 341.652C259.292 345.28 259.027 349.64 259.018 353.386L259.013 454.799C257.476 455.036 253.955 454.864 252.369 454.799C251.037 454.991 250.233 454.885 248.902 454.799C253.619 454.541 250.711 451.649 249.252 446.242L225.79 358.058C223.17 347.976 219.541 337.335 217.74 327.155Z"/><path fill="#4B89C6" transform="scale(2 2)" d="M252.369 454.799L252.373 357.653C252.371 353.351 250.157 341.656 253.942 341.652C255.523 341.67 257.463 341.74 259.013 341.652C259.292 345.28 259.027 349.64 259.018 353.386L259.013 454.799C257.476 455.036 253.955 454.864 252.369 454.799Z"/><path fill="#042428" transform="scale(2 2)" d="M341.411 298.744C346.934 300.713 352.053 303.021 357.445 305.312L391.562 319.627C396.061 321.495 402.585 323.918 406.342 326.669C420.316 336.904 422.211 364.635 424.543 380.091L430.204 418.864C431.747 430.035 434.035 443.725 435.143 454.799C428.778 455.439 413.646 455.272 407.514 454.806C397.224 454.024 381.162 454.818 370.44 454.808L290.307 454.803C287.542 454.806 283.23 454.943 280.579 454.799C277.031 455.059 267.849 454.987 264.348 454.799C262.6 454.99 260.762 454.965 259.013 454.799L259.018 353.386C259.027 349.64 259.292 345.28 259.013 341.652C269.794 340.047 275.18 340.513 285.873 334.538C288.654 332.984 291.317 330.297 294.062 328.982C295.881 323.247 297.15 318.069 298.549 312.206C308.804 311.88 317.972 309.575 327.405 305.601L327.811 305.777C328.219 305.15 339.004 299.732 341.411 298.744Z"/><path fill="#484849" transform="scale(2 2)" d="M298.549 312.206C308.804 311.88 317.972 309.575 327.405 305.601L327.811 305.777C331.16 316.928 334.673 328.383 338.907 339.238L318.839 346.751C315.574 347.942 310.321 349.512 307.382 350.855C315.697 356.197 324.329 361.061 332.676 366.475C327.537 373.953 321.192 382.137 315.761 389.629L287.949 428.624C282.885 435.74 273.874 447.051 270.145 454.799C272.086 454.785 279.04 454.589 280.579 454.799C277.031 455.059 267.849 454.987 264.348 454.799C262.6 454.99 260.762 454.965 259.013 454.799L259.018 353.386C259.027 349.64 259.292 345.28 259.013 341.652C269.794 340.047 275.18 340.513 285.873 334.538C288.654 332.984 291.317 330.297 294.062 328.982C295.881 323.247 297.15 318.069 298.549 312.206Z"/><path fill="#85AFD0" transform="scale(2 2)" d="M294.062 328.982C293.013 334.63 291.083 341.43 289.63 347.117L280.549 381.457C273.821 406.103 267.582 430.222 260.315 454.799C261.493 454.788 263.22 454.726 264.348 454.799C262.6 454.99 260.762 454.965 259.013 454.799L259.018 353.386C259.027 349.64 259.292 345.28 259.013 341.652C269.794 340.047 275.18 340.513 285.873 334.538C288.654 332.984 291.317 330.297 294.062 328.982Z"/></svg>